<svg width="34" height="34" viewBox="0 0 34 34" fill="none" xmlns="http://www.w3.org/2000/svg">
<path d="M4.25 26.9173V25.5007C4.25 22.371 6.78705 19.834 9.91667 19.834H15.5833C18.7129 19.834 21.25 22.371 21.25 25.5007V26.9173M21.25 15.584C23.5972 15.584 25.5 13.6812 25.5 11.334C25.5 8.98677 23.5972 7.08398 21.25 7.08398M29.75 26.9173V25.5007C29.75 22.371 27.2129 19.834 24.0833 19.834H23.375M17 11.334C17 13.6812 15.0972 15.584 12.75 15.584C10.4028 15.584 8.5 13.6812 8.5 11.334C8.5 8.98677 10.4028 7.08398 12.75 7.08398C15.0972 7.08398 17 8.98677 17 11.334Z" stroke="#9E9E9E" stroke-width="2" stroke-linecap="round" stroke-linejoin="round"/>
</svg>
