<svg width="25" height="24" viewBox="0 0 25 24" fill="none" xmlns="http://www.w3.org/2000/svg">
<g clip-path="url(#clip0_64_348)">
<path d="M8.67088 13.3535C9.80514 13.3535 10.9286 13.5438 11.9765 13.9131C13.0245 14.2824 13.9772 14.8235 14.7793 15.5059C15.5812 16.1882 16.2173 16.9982 16.6513 17.8896C17.3556 19.3361 16.0043 20.7021 14.3955 20.7021H2.94725C1.33846 20.7021 -0.0128383 19.3361 0.691387 17.8896C1.12543 16.9982 1.76154 16.1882 2.56346 15.5059C3.36551 14.8235 4.31826 14.2824 5.36619 13.9131C6.41395 13.5439 7.53681 13.3536 8.67088 13.3535ZM8.67186 3.29883C11.0766 3.29906 13.0262 5.24852 13.0263 7.65332C13.0263 10.0582 11.0767 12.0076 8.67186 12.0078C6.26681 12.0078 4.31639 10.0584 4.31639 7.65332C4.31651 5.24838 6.26688 3.29883 8.67186 3.29883Z" fill="#7E7E7E"/>
<path d="M16.3282 13.3535C17.4623 13.3535 18.586 13.5439 19.6338 13.9131C20.6817 14.2824 21.6345 14.8235 22.4366 15.5059C23.2384 16.1881 23.8746 16.9983 24.3086 17.8896C25.0129 19.3361 23.6616 20.7021 22.0528 20.7021H16.126C17.7347 20.7021 19.086 19.3361 18.3819 17.8896C17.9479 16.9983 17.3117 16.1881 16.5098 15.5059C15.7078 14.8235 14.755 14.2824 13.7071 13.9131C13.5941 13.8733 13.4799 13.8364 13.3653 13.8008C14.3138 13.5059 15.3164 13.3536 16.3282 13.3535ZM16.3291 3.29883C18.7339 3.29906 20.6835 5.24852 20.6836 7.65332C20.6836 10.0582 18.734 12.0076 16.3291 12.0078C15.1842 12.0077 14.1427 11.5653 13.3653 10.8428C14.2208 10.0477 14.7569 8.91341 14.7569 7.65332C14.7568 6.3933 14.2208 5.25899 13.3653 4.46387C14.1427 3.7413 15.1842 3.29891 16.3291 3.29883Z" fill="#7E7E7E"/>
</g>
<defs>
<clipPath id="clip0_64_348">
<rect width="24" height="24" fill="white" transform="translate(0.5)"/>
</clipPath>
</defs>
</svg>
