<svg width="14" height="14" viewBox="0 0 14 14" fill="none" xmlns="http://www.w3.org/2000/svg">
<path fill-rule="evenodd" clip-rule="evenodd" d="M5.07559 3.35547C5.41217 2.77214 6.25392 2.77214 6.59109 3.35547L8.63275 6.89164L9.15892 5.98047C9.4955 5.39714 10.3373 5.39714 10.6744 5.98047L13.2003 10.3555C13.2771 10.4885 13.3175 10.6394 13.3175 10.793C13.3175 10.9466 13.2771 11.0974 13.2003 11.2305C13.1235 11.3635 13.013 11.4739 12.88 11.5507C12.747 11.6275 12.5961 11.668 12.4425 11.668H9.91667V11.6668L9.87467 11.668H1.792C1.63836 11.6681 1.4874 11.6277 1.35431 11.551C1.22121 11.4742 1.11067 11.3637 1.03381 11.2307C0.956947 11.0977 0.916467 10.9468 0.916443 10.7931C0.916418 10.6395 0.95685 10.4885 1.03367 10.3555L5.07559 3.35547ZM4.54475 6.60814L4.95834 6.88347L5.50959 6.51597C5.60545 6.45201 5.7181 6.41788 5.83334 6.41788C5.94857 6.41788 6.06123 6.45201 6.15709 6.51597L6.70834 6.88347L7.12192 6.60814L5.83334 4.3763L4.54475 6.60814Z" fill="#FF3742"/>
</svg>
