<svg width="25" height="24" viewBox="0 0 25 24" fill="none" xmlns="http://www.w3.org/2000/svg">
<path d="M12.4999 13.6436C13.883 13.6436 15.2525 13.8749 16.5302 14.3252C17.808 14.7755 18.9692 15.4356 19.9472 16.2676C20.9252 17.0997 21.7011 18.0876 22.2304 19.1748C22.3113 19.341 22.3862 19.5091 22.455 19.6787C23.0782 21.2139 21.689 22.6035 20.0322 22.6035H4.96771C3.31086 22.6035 1.92171 21.2139 2.54486 19.6787C2.61372 19.5091 2.68855 19.341 2.76947 19.1748C3.29877 18.0876 4.07466 17.0997 5.05267 16.2676C6.03067 15.4355 7.19186 14.7755 8.46967 14.3252C9.74743 13.8749 11.1169 13.6436 12.4999 13.6436ZM12.4999 1.38184C15.4326 1.38184 17.8105 3.75972 17.8105 6.69238C17.8105 9.62507 15.4326 12.0029 12.4999 12.0029C9.56736 12.0028 7.19037 9.62499 7.19037 6.69238C7.19039 3.75979 9.56737 1.38196 12.4999 1.38184Z" fill="#7E7E7E"/>
</svg>
